<?xml version="1.0" encoding="UTF-8" standalone="no"?>
<svg id="Capa_1" xmlns:rdf="http://www.w3.org/1999/02/22-rdf-syntax-ns#" style="enable-background:new 0 0 79.536 79.536" xmlns="http://www.w3.org/2000/svg" xml:space="preserve" height="79.536px" viewBox="0 0 79.536 79.536" width="79.536px" version="1.1" y="0px" x="0px" xmlns:cc="http://creativecommons.org/ns#" xmlns:dc="http://purl.org/dc/elements/1.1/"><g id="g3"><path id="path5" fill="#97d164" d="m39.769 0c-21.969 0-39.769 17.8-39.769 39.768 0 21.965 17.8 39.768 39.769 39.768 21.965 0 39.768-17.803 39.768-39.768-0.001-21.968-17.804-39.768-39.768-39.768z"/></g><path id="path4147" d="m25.803 50.008-9.264-9.2686 3.6199-3.6199 3.6199-3.6199 5.4812 5.4736c3.0146 3.0105 5.6303 5.4736 5.8126 5.4736 0.18229 0 5.3387-5.0056 11.459-11.124l11.127-11.124 3.6171 3.6283 3.6171 3.6283-14.913 14.91-14.913 14.91-9.264-9.2686z" stroke="#fff" fill="#fff"/></svg>
